<?xml version="1.0" encoding="utf-8"?>
<!-- Generator: Adobe Illustrator 18.0.0, SVG Export Plug-In . SVG Version: 6.00 Build 0)  -->
<!DOCTYPE svg PUBLIC "-//W3C//DTD SVG 1.1//EN" "http://www.w3.org/Graphics/SVG/1.1/DTD/svg11.dtd">
<svg version="1.1" id="Cow" xmlns="http://www.w3.org/2000/svg" xmlns:xlink="http://www.w3.org/1999/xlink" x="0px" y="0px"
	 viewBox="0 0 110 240" style="enable-background:new 0 0 110 240;" xml:space="preserve">
<style type="text/css">
	.st0{opacity:0.41;fill:#58595B;}
	.st1{fill:#404041;}
	.st2{fill:#F1F1F2;}
	.st3{fill:#F2F2F2;}
	.st4{fill:#E6E6E6;}
	.st5{fill:#F7ABBF;}
	.st6{fill:#D0D2D3;}
	.st7{fill:#C34599;}
	.st8{fill:#333333;}
	.st9{fill:#FFFFFF;}
	.st10{fill:#CCCCCC;}
	.st11{fill:#58595B;}
	.st12{fill:#A6A8AB;}
	.st13{opacity:0.75;fill:#C24498;}
	.st14{opacity:0.7;fill:#F6AABE;}
	.st15{fill:#929497;}
</style>
<!--
<defs>
	<script  xlink:href="js/floatingcow.js"  language="JavaScript">
	</script>
</defs>
-->
<path id="shadow" class="st0" d="M97.086,231.799c0,3.199-17.309,5.793-35.321,5.793c-19.507,0-35.321-2.593-35.321-5.793
	c0-3.199,15.814-5.793,35.321-5.793S97.086,228.6,97.086,231.799z"/>
<path id="tail" class="st1" d="M100.219,167.713c1.856-2.869-2.052-3.004-1.393-5.425c-1.366,0.136,0,0-1.366,0.136
	c-0.006,0.024-0.011,0.046-0.017,0.07c-3.048,11.845,4.099,7.997,4.099,7.997S98.971,169.641,100.219,167.713z"/>
<path id="bodyshape" class="st2" d="M88.467,141.256c-5.464-3.637-14.737-4.785-28.359-4.785c-4.343,0-8.694,0.504-12.779,1.439
	c0.002,0.004,0.003,0.008,0.005,0.012c0.247,0.648,0.464,1.329,0.619,2.086c0.086,0.422,0.175,0.84,0.235,1.298
	c0.185-0.16,0.4-0.307,0.635-0.444c1.719-1.001,4.636-1.369,6.811-0.974c0.315,0.057,0.657,0.212,0.997,0.434
	c1.236,0.811,2.432,2.578,2.117,4.317c-0.402,2.216-3.275,3.593-4.584,3.355c-2.037-0.37-4.465-1.513-5.799-2.933
	c-0.056,1.08,0.127,11.598-9.157,19.198c-1.647,2.992-6.103,4.559-9.948,4.455c1.434,3.356,3.113,6.577,5.159,8.986
	c2.042,2.403,4.446,3.962,7.336,4.073c0.074,0.486,0.155,1.019,0.242,1.546c0.004-0.022,0.008-0.044,0.012-0.067
	c0.264,1.598,0.587,3.761,0.954,4.747h5.233c0.08,0,0.157-0.569,0.233-0.907c0.404-1.808,0.744-3.793,0.996-5.471
	c1.967-0.189,4.155-0.423,6.601-0.627c0.936-0.078,1.902-0.152,2.919-0.217c3.657-0.232,7.151,0.102,10.442,0.488
	c0.001,0.004,0.001,0.007,0.002,0.011c2.446,0.287,4.782,0.596,6.972,0.732c0.059,0.397,0.125,1.126,0.194,1.603
	c0.259,1.751,0.599,3.617,0.967,4.388h5.384c0.583-2,1.05-5.157,1.332-7.178c4.444-2.199,7.831-7.688,9.803-20.539
	c1.002-6.531,0.539-11.306-1.53-14.859c3.515,0.781,8.233,4.122,4.948,16.97l1.366-0.12c0.009-0.033,0.01-0.055,0.021-0.089
	C102.931,149.282,100.869,145.553,88.467,141.256z"/>
<path id="right_front_hoove" class="st1" d="M36.021,186.878c0.531,2.122,1.153,3.738,1.816,3.738h1.602
	c0.663,0,1.285-1.615,1.817-3.738H36.021z"/>
<path id="right_back_hoove" class="st1" d="M70.62,188c0.522,2.042,1.129,3.578,1.775,3.578h1.602c0.646,0,1.253-1.535,1.775-3.578
	H70.62z"/>
<path id="left_back_hoove" class="st1" d="M79.412,192.045h1.602c0.695,0,1.345-1.773,1.892-4.045h-5.384
	C78.069,190.27,78.717,192.045,79.412,192.045z"/>
<path id="left_front_hoove" class="st1" d="M44.778,191.739h1.602c0.663,0,1.285-1.616,1.816-3.739h-5.233
	C43.494,190.122,44.115,191.739,44.778,191.739z"/>
<path id="right_back_leg" class="st3" d="M76.545,183.549c-1.34,1.13-3.085,1.797-5.091,2.3c0.033,0.696-0.368,1.575-0.863,2.076
	c0.01,0.044,0.02,0.075,0.03,0.075h5.152C76.359,186.094,76.545,183.549,76.545,183.549z"/>
<path id="right_front_leg" class="st3" d="M41.93,182.956c-2.802-0.375-5.242-2.178-7.438-4.694c0.25,1.893,0.746,5.359,1.397,8.134
	c0.043,0.184,0.087,0.603,0.132,0.603h5.235c0.274-1,0.523-2.386,0.742-3.6C41.974,183.259,41.952,183.106,41.93,182.956z"/>
<path id="frontlegShadow" class="st4" d="M41.93,182.956c-0.061-0.409-0.121-0.827-0.174-1.183c-0.25-0.003-0.522-0.032-0.809-0.083
	c-2.532-0.345-4.68-1.816-6.527-3.99c0.021,0.162,0.047,0.361,0.073,0.562C36.688,180.779,39.127,182.582,41.93,182.956z"/>
<path id="udders" class="st5" d="M76.36,182.004c-0.613-0.038-1.241-0.092-1.876-0.154c-0.156-0.015-0.317-0.033-0.474-0.05
	c-0.591-0.061-1.196-0.131-1.803-0.202c-4.083-0.482-8.541-1.12-13.262-0.82c-1.017,0.065-1.983,0.139-2.919,0.217
	c0.794,1.377,2.374,2.727,4.98,3.951c-0.193,1.639,2.081,4.7,2.54,0.894c0.45,0.114,0.91,0.212,1.384,0.287
	c-0.049,1.708,2.473,4.342,2.581,0.208c0.459,0.016,0.917-0.005,1.375-0.061c0.15,2.308,1.018,2.345,1.705,1.65
	c0.495-0.501,0.896-1.38,0.863-2.076c2.006-0.503,3.751-1.171,5.091-2.3C76.475,183.072,76.42,182.405,76.36,182.004z"/>
<path id="spot3" class="st1" d="M82.959,169.669c-0.829,1.154,3.166,8.081-2.746,5.831c-3.647-1.388-12.898,3.726-12.898-1.944
	c0-1.959,2.306-3.095,3.694-3.905c3.233-1.887,1.167-3.119,2.157-6.073C74.659,159.131,86.212,165.138,82.959,169.669z"/>
<path id="spot2" class="st1" d="M54.436,158.367c7.362,10.165-3.062,17.492-7.802,12.026c-2.653-3.059,5.763-6.444,1.946-9.587
	C44.706,157.616,50.653,153.143,54.436,158.367z"/>
<path id="spot1" class="st1" d="M88.735,146.014c3.31,10.977-1.814,15.701-9.018,9.149c-5.974-5.433-14.765,4.135-18.558,0.829
	C52.856,148.757,83.909,130.013,88.735,146.014z"/>
<path id="hornLeft" class="st6" d="M23.104,132.501c0.035-0.033,0.069-0.068,0.104-0.101c0.677-0.607,1.423-1.087,2.237-1.475
	c-0.135-0.103-0.299-0.19-0.529-0.234c-4.608-0.881-5.142-5.643-6.053-4.764c-1.088,1.049-1.849,5.891,1.748,8.915
	c0.109,0.091,0.227,0.15,0.345,0.211c0.453-0.651,0.93-1.278,1.448-1.839C22.631,132.962,22.863,132.723,23.104,132.501z"/>
<path id="hornRight" class="st6" d="M53.267,132.168c-0.539-1.131-3.419,3.161-7.954,2.437c0.876,0.93,1.532,2.033,2.02,3.317
	c0.247,0.648,0.464,1.329,0.619,2.086c0.173-0.007,0.354-0.039,0.547-0.108c1.662-0.588,2.839-1.631,3.627-2.777
	C53.44,135.214,53.673,133.02,53.267,132.168z"/>
<path id="hornShadow" class="st4" d="M48.822,140.863c-0.003-0.015-0.005-0.022-0.008-0.04c0.171-0.008,4.163-2.281,4.856-3.938
	l-1.544,0.239c-0.788,1.146-1.966,2.189-3.627,2.777c-0.193,0.068-0.375,0.1-0.547,0.108c0.086,0.422,0.175,0.84,0.235,1.298
	C48.372,141.146,48.588,140.999,48.822,140.863z"/>
<path id="faceShadow" class="st4" d="M56.63,140.323c1.236,0.811,2.432,2.578,2.117,4.317c-0.402,2.216-3.275,3.593-4.584,3.355
	c-2.037-0.37-4.465-1.513-5.799-2.933c-0.056,1.08,0.127,11.598-9.157,19.198c-1.657,3.009-6.154,4.578-10.015,4.455
	c-0.002,0.003-0.004,0.007-0.006,0.01l0.518,0.939c4.091,0.771,8.559-1.41,10.451-4.97c9.191-7.793,9.01-17.58,9.065-18.688
	c1.32,1.456,3.724,2.629,5.741,3.008c1.297,0.244,4.141-1.168,4.539-3.441C59.899,143.3,58.079,140.595,56.63,140.323z"/>
<path id="earspotLeft" class="st1" d="M34.505,132.621c-0.425-0.213-0.642-0.322-0.737-0.369c0.156,0.078,0.571,0.286,0.732,0.367
	c-2.134-1.071-4.745-2.649-7.37-2.33c-0.601,0.164-1.154,0.384-1.684,0.637c-0.815,0.388-1.561,0.868-2.237,1.475
	c-0.035,0.032-0.069,0.068-0.104,0.101c-0.241,0.222-0.473,0.462-0.7,0.713c-0.518,0.56-0.996,1.188-1.448,1.839
	c-0.23,0.33-0.464,0.657-0.671,1.004c-1.087-1.71-3.979-3.302-6.355-3.733c-1.463-0.265-4.175,1.098-4.577,3.314
	c-0.402,2.216,1.811,4.473,3.121,4.711c1.928,0.35,4.444,0.102,6.19-0.656c-0.221,0.748-0.373,1.483-0.421,2.175
	c0.011,0.011,0.02,0.02,0.03,0.031c6.028,6.436,3.556-4.162,7.421-4.027C27.95,137.944,40.375,135.563,34.505,132.621z"/>
<path id="faceshape" class="st3" d="M56.63,140.323c-0.339-0.223-0.682-0.377-0.997-0.434c-2.175-0.395-5.092-0.027-6.811,0.974
	c-0.235,0.137-0.45,0.284-0.635,0.444c-0.06-0.459-0.148-0.877-0.235-1.298c-0.155-0.757-0.372-1.437-0.619-2.086
	c-0.002-0.004-0.003-0.008-0.005-0.012c-0.488-1.279-1.142-2.379-2.015-3.305c-1.196-1.27-2.753-2.273-4.773-3.099
	c-0.596-0.243-1.329,0.026-0.44-1.091c0.608-0.763-3.361,0.153-3.82,0.072c-0.499-0.088,1.614-1.79,1.112-1.865
	c-0.431-0.065-3.479,1.495-3.89,1.443c-0.422-0.054,0.962-1.491,0.583-1.529c-0.805-0.08-3.278,1.271-3.73,1.288
	c-1.191,0.045-2.257,0.2-3.226,0.464c2.626-0.319,5.236,1.259,7.37,2.33c-0.161-0.081-0.576-0.289-0.732-0.367
	c0.095,0.047,0.312,0.156,0.737,0.369c5.87,2.942-6.555,5.323-8.81,5.251c-3.865-0.134-1.393,10.463-7.421,4.027
	c-0.534,3.513-1.306,10.947,0.664,16.145c-0.486-4.945,2.935-3.952,6.435-2.44c1.97,0.851,3.966,1.865,5.304,2.079
	c1.377,0.22,3.191,0.137,4.859,0.236c3.108,0.185,5.705,1.005,4.008,5.61c-0.093,0.253-0.206,0.497-0.336,0.732
	c9.284-7.599,9.101-18.118,9.157-19.198c1.334,1.42,3.761,2.563,5.799,2.933c1.31,0.238,4.182-1.139,4.584-3.355
	C59.063,142.901,57.867,141.134,56.63,140.323z"/>
<path id="muzzle" class="st5" d="M35.535,157.918c-1.667-0.099-3.481-0.016-4.859-0.236c-1.338-0.213-3.334-1.228-5.304-2.079
	c-3.501-1.512-6.922-2.505-6.435,2.44v0c0.272,6.224,3.999,9.747,8.354,10.539c0.551,0.1,1.709,0.132,1.709,0.132
	c4,0.076,8.475-1.316,10.109-4.283c0.13-0.235,0.341-0.651,0.434-0.904C41.24,158.923,38.643,158.103,35.535,157.918z"/>
<path id="mouth" class="st7" d="M24.479,164.049c0.217-0.171-0.917,0.029-0.576,0.464c0.341,0.434,1.556,1.286,2.651,1.199
	c0,0,0,0-1.114-0.572C24.828,164.825,24.339,164.159,24.479,164.049z"/>
<path id="nostrilRight" class="st8" d="M32.137,160.864c-2.13,0.902-2.089,4.023,0.033,1.139
	C33.739,163.276,35.069,159.623,32.137,160.864z"/>
<path id="nostrilLeft" class="st8" d="M27.328,160.147c1.841,1.402,0.543,4.5-0.431,1.055
	C22.627,160.702,23.457,157.198,27.328,160.147z"/>
<path id="eyeWhites" class="st9" d="M38.696,147.706c-2.669-1.176-5.675-0.466-6.907,1.555c-0.382-2.007-2.675-3.444-5.325-3.245
	c-2.781,0.208-4.878,2.131-4.682,4.295c0.196,2.164,2.609,3.749,5.39,3.541c1.8-0.135,3.301-0.993,4.092-2.164
	c0.219,1.624,1.448,3.203,3.356,4.044c2.778,1.225,5.943,0.421,7.069-1.795C42.814,151.72,41.474,148.931,38.696,147.706z"/>
<path id="irisLeft" class="st8" d="M28.299,150.012c-0.164,0.256-0.401,0.415-0.641,0.371c-0.362-0.066-0.579-0.541-0.485-1.062
	c0.021-0.118,0.061-0.226,0.107-0.325c-0.093-0.035-0.186-0.07-0.286-0.088c-1.042-0.189-2.069,0.667-2.295,1.913
	c-0.226,1.245,0.435,2.408,1.477,2.597c0.632,0.115,1.256-0.159,1.701-0.668c-0.085,0.035-0.177,0.055-0.274,0.037
	c-0.272-0.049-0.452-0.31-0.403-0.581c0.049-0.272,0.31-0.452,0.581-0.403c0.247,0.045,0.41,0.266,0.401,0.51
	c0.133-0.243,0.234-0.514,0.288-0.809C28.568,150.965,28.492,150.448,28.299,150.012z"/>
<path id="irisRight" class="st8" d="M38.061,153.964c0.049-0.272,0.31-0.452,0.581-0.403c0.098,0.018,0.177,0.069,0.245,0.132
	c0.029-0.094,0.062-0.186,0.08-0.285c0.085-0.468,0.031-0.927-0.13-1.329c-0.155,0.45-0.465,0.755-0.772,0.699
	c-0.362-0.066-0.569-0.596-0.463-1.185c0.044-0.243,0.141-0.445,0.258-0.609c-0.178-0.095-0.367-0.173-0.575-0.211
	c-1.155-0.209-2.274,0.63-2.5,1.876c-0.226,1.245,0.527,2.425,1.682,2.634c0.751,0.136,1.483-0.176,1.968-0.75
	C38.18,154.47,38.013,154.225,38.061,153.964z"/>
<path id="eyelineLeft" class="st10" d="M20.951,150.25c0.042,0.136,0.211,0.4,0.883,0.409c0,0-0.878-0.524,3.043-1.632
	c3.637-1.027,6.823,0.26,6.823,0.26l0.078-0.153C28.165,147.875,24.2,148.184,20.951,150.25z"/>
<path id="eyelidLeft" class="st4" d="M26.012,145.67c-2.957,0.186-4.635,1.681-5.047,4.473c-0.005,0.031-0.014,0.057-0.018,0.088
	c0.002,0.006,0.003,0.011,0.005,0.018c3.249-2.066,7.214-2.374,10.826-1.116C30.969,146.578,28.831,145.435,26.012,145.67z"/>
<path id="eyelineRight" class="st10" d="M31.312,149.656l0.465,0.23c0,0,3.597-0.544,6.173,0.855
	c2.547,1.383,3.827,3.382,3.827,3.382c0.438,0.246,0.719,0,0.719,0C39.635,150.461,35.907,148.972,31.312,149.656z"/>
<path id="eyelidRight" class="st4" d="M39.256,147.475c-3.194-1.306-5.842-0.579-7.944,2.182c4.595-0.685,8.323,0.805,11.184,4.467
	C43.375,151.032,42.295,148.816,39.256,147.475z"/>
<path id="eyebrowLeft" class="st11" d="M22.205,145.627c1.614-2.981,2.478-3.28,6.147-2.047c-1.368-0.46-3.777-0.335-6.071,2.113
	L22.205,145.627z"/>
<path id="eyebrowRight" class="st11" d="M42.575,146.737c-1.481-3.156-3.893-3.323-5.088-2.713c4.387-2.237,4.514,0.1,5.186,2.693
	L42.575,146.737z"/>
<path id="earlineLeft" class="st12" d="M48.302,142.071c2.363-1.144,5.019-1.266,7.421-0.291c-2.545-0.616-5.143-0.103-7.367,1.346
	L48.302,142.071z"/>
<path id="earlineRight" class="st11" d="M19.493,137.973c-1.62-2.268-4.181-3.445-6.847-3.136c2.549-0.59,5.288,0.178,7.338,1.954
	L19.493,137.973z"/>
<path id="stringsAroundCow" class="st12" d="M61.187,136.307c-0.953-3.857-1.089-1.353-1.77-0.315
	c-0.132,0.201,7.49,20.195-5.51,45.21c-0.172,0.331,1.335,0.747,1.744,0.048c0.021,0.021,0.288,0.667,0.872-0.127
	C71.551,160.738,61.248,136.556,61.187,136.307z M63.361,159.642c-1.194,9.884-3.666,14.786-5.691,18.126
	c0.299-0.493,2.911-5.799,4.497-12.249C62.708,163.321,63.265,160.435,63.361,159.642z"/>
<path id="balloon5shape" class="st13" d="M73.161,21.219c0.741,10.112-6.925,21.557-13.762,24.432
	c-1.235,0.519,3.072,3.561-1.648,3.868c-3.299,0.215,0.247-2.8-1.473-3.452C49.749,43.591,39,33.223,38.308,23.774
	c-0.875-11.938,7.718-19.482,16.64-20.136S72.286,9.281,73.161,21.219z"/>
<path id="balloon5sting" class="st12" d="M59.708,46.01c0.272-0.022-3.182-0.175-3.48,0.227c-0.905,1.223,3.289,0.35,3.146,0.138
	c3.557,5.292,4.545,49.458,0.247,74.703c0.253,1.777,0.463,3.484,0.618,5.076C68.62,56,60.125,45.977,59.708,46.01z"/>
<path id="balloon4shape" class="st13" d="M39.608,36.322c1.031,10.086-6.305,21.746-13.056,24.816
	c-1.219,0.554,3.173,3.471-1.536,3.914c-3.292,0.31,0.167-2.806-1.571-3.409C16.847,59.356,5.806,49.3,4.842,39.875
	C3.626,27.967,11.999,20.18,20.899,19.27C29.799,18.361,38.392,24.414,39.608,36.322z"/>
<path id="balloon4sting" class="st12" d="M59.681,131.579c-0.019-0.417-0.045-0.856-0.078-1.316
	C56.232,110.91,29.417,53.75,23.544,61.931c-0.67,0.933,2.468,1.736,3.276,0.66c7.918,8.356,13.444,19.991,18.493,30.179
	c1.613,3.255,11.6,29.099,13.539,39.444c0.325,0.348,0.615,0.716,0.856,1.047C59.673,132.748,59.665,132.184,59.681,131.579z"/>
<path id="balloon3shape" class="st14" d="M102.714,46.304c-3.406,9.55-15.041,16.924-22.457,16.793
	c-1.339-0.024,1.372,4.498-3.07,2.873c-3.105-1.136,1.357-2.462,0.047-3.753c-4.973-4.902-10.619-18.728-7.437-27.652
	c4.021-11.275,14.928-14.706,23.355-11.701S106.735,35.03,102.714,46.304z"/>
<path id="balloon3string" class="st12" d="M60.531,134.323c0.119-0.024,0.332-0.066,0.608-0.112
	C61.208,117,84.333,68.979,80.257,63.097c-0.127-0.055-3.058-1.5-3.343-1.264c-1.098,0.911,0.858,1.917,2.925,1.875
	c0.9,9.791-16.933,49.911-18.824,64.63C60.693,130.843,60.442,132.88,60.531,134.323z"/>
<path id="balloon2shape" class="st13" d="M87.667,67.997c-1.77,9.983-12.018,19.189-19.352,20.293
	c-1.325,0.199,2.101,4.207-2.549,3.344c-3.251-0.603,0.929-2.653-0.578-3.709c-5.719-4.007-13.585-16.702-11.931-26.03
	c2.09-11.786,12.276-16.983,21.085-15.421S89.757,56.21,87.667,67.997z"/>
<path id="balloon2string" class="st12" d="M68.058,88.896c-1.208-0.435-2.352-0.326-3.433,0.328c1.007,2.717,4.15-2.17,3.615,2.164
	c-0.613,4.967-2.236,9.936-3.481,14.76c-1.07,4.145-3.773,16.959-4.517,21.563c0,0,0.417,2.393,0.349,3.852
	C61.131,119.905,71.054,89.931,68.058,88.896C67.935,88.854,68.796,89.333,68.058,88.896z"/>
<path id="balloon1shape" class="st14" d="M60.185,53.233c0.802,10.107-6.794,21.598-13.614,24.515
	c-1.232,0.527,3.093,3.542-1.624,3.878c-3.298,0.235,0.23-2.802-1.494-3.443c-6.544-2.436-17.355-12.739-18.105-22.184
	c-0.947-11.932,7.6-19.529,16.518-20.237S59.238,41.3,60.185,53.233z"/>
<path id="balloon1string" class="st12" d="M60.342,127.297c-0.506-6.143-4.572-49.602-15.3-49.597
	c-5.787,0.003,2.1,1.338,1.246,0.968c11.027,10.752,11.16,37.962,13.352,52.147c0.005-0.103,0.035,3.641,0.068,2.444l0.697,1.063
	C60.771,132.17,60.514,129.382,60.342,127.297C60.311,126.924,60.469,128.833,60.342,127.297z"/>
<path id="bow" class="st15" d="M67.884,143.381c-5.238-1.788-6.528-5.028-7.01-7.263c3.031,3.28,4.717,4.805,6.208,2.26
	c3.712-6.335-6.663-4.031-6.663-4.031s-3.993-7.096-6.219-1.107c-1.055,2.838,4.688,2.212,4.688,2.212
	c-0.113,0.402-2.108,1.671-5.715,1.021c0,0,4.88,3.146,6.7-0.697C60.697,143.779,67.884,143.381,67.884,143.381z M66.54,137.384
	c-2.089,2.915-4.355-1.908-5.281-2.536C64.238,134.024,67.906,135.479,66.54,137.384z M59.287,134.249c0,0-4.629,1.301-3.86-0.776
	C56.946,129.368,59.287,134.249,59.287,134.249z"/>
</svg>