<svg xmlns="http://www.w3.org/2000/svg" xmlns:xlink="http://www.w3.org/1999/xlink" width="110" height="280" viewBox="0 0 110 240" preserveAspectRatio="xMaxYMin meet" version="1.1" xml:space="preserve">
  <style> #balloon5shape { cursor: pointer; } </style>
  <defs>
    <g id="defballoon">
      <path id="defballoonshape" opacity="0.8" d="M0 45c5 0 0 -3 2 -4 6-3 15-14 15-23 0-12-7-18-17-18-10 0-17 6-17 18 0 9 9 20 15 23 2 1-3 4 2 4z"/>
      <ellipse id="defballoontie" cx="0" cy="42" rx="3" ry="1" opacity="1" fill="#A6A8AB"/>
    </g>
  </defs>
  <g id="floatingCowAll">
    <ellipse id="shadow" cx="62" cy="232" rx="26" ry="4" opacity="0.4" fill="#58595B">
      <animate id="dropWidenShadow" attributeType="XML" attributeName="rx" begin="balloon5.click" from="0" to="5" dur="1s" additive="sum" repeatCount="1" fill="freeze"/>
      <animate id="dropDarkenShadow" attributeType="XML" attributeName="opacity" begin="balloon5.click" from="0" to="0.2" dur="1s" additive="sum" repeatCount="1" fill="freeze"/>
      <animate id="bobWidenShadow" attributeType="XML" attributeName="rx" begin="0s;" values="0;2;0" dur="3s" additive="sum" repeatCount="indefinite" fill="freeze"/>
      <animate id="bobDarkenShadow" attributeType="XML" attributeName="opacity" begin="0s" values="0;0.1;0" dur="3s" additive="sum" repeatCount="indefinite" fill="freeze"/>
    </ellipse>
    <g id="cowAndBalloons">
      <path id="tail" fill="#404041" d="M100 168c1.856-2.869-2.052-3.004-1.393-5.425 -1.366 0.136 0 0-1.366 0.136 -0.006 0.024-0.011 0.046-0.017 0.07 -3.048 11.845 4.099 7.997 4.099 7.997S98.971 169.641 100 168z"/>
      <path id="bodyshape" fill="#F1F1F2" d="M88.467 141.256c-5.464-3.637-14.737-4.785-28.359-4.785 -4.343 0-8.694 0.504-12.779 1.439 0.002 0.004 0.003 0.008 0.005 0.012 0.247 0.648 0.464 1.329 0.619 2.086 0.086 0.422 0.175 0.84 0.235 1.298 0.185-0.16 0.4-0.307 0.635-0.444 1.719-1.001 4.636-1.369 6.811-0.974 0.315 0.057 0.657 0.212 0.997 0.434 1.236 0.811 2.432 2.578 2.117 4.317 -0.402 2.216-3.275 3.593-4.584 3.355 -2.037-0.37-4.465-1.513-5.799-2.933 -0.056 1.08 0.127 11.598-9.157 19.198 -1.647 2.992-6.103 4.559-9.948 4.455 1.434 3.356 3.113 6.577 5.159 8.986 2.042 2.403 4.446 3.962 7.336 4.073 0.074 0.486 0.155 1.019 0.242 1.546 0.004-0.022 0.008-0.044 0.012-0.067 0.264 1.598 0.587 3.761 0.954 4.747h5.233c0.08 0 0.157-0.569 0.233-0.907 0.404-1.808 0.744-3.793 0.996-5.471 1.967-0.189 4.155-0.423 6.601-0.627 0.936-0.078 1.902-0.152 2.919-0.217 3.657-0.232 7.151 0.102 10.442 0.488 0.001 0.004 0.001 0.007 0.002 0.011 2.446 0.287 4.782 0.596 6.972 0.732 0.059 0.397 0.125 1.126 0.194 1.603 0.259 1.751 0.599 3.617 0.967 4.388h5.384c0.583-2 1.05-5.157 1.332-7.178 4.444-2.199 7.831-7.688 9.803-20.539 1.002-6.531 0.539-11.306-1.53-14.859 3.515 0.781 8.233 4.122 4.948 16.97l1.366-0.12c0.009-0.033 0.01-0.055 0.021-0.089C102.931 149.282 100.869 145.553 88.467 141.256z"/>
      <path id="right_front_hoove" fill="#404041" d="M36.021 186.878c0.531 2.122 1.153 3.738 1.816 3.738h1.602c0.663 0 1.285-1.615 1.817-3.738H36.021z"/>
      <path id="right_back_hoove" fill="#404041" d="M70.62 188c0.522 2.042 1.129 3.578 1.775 3.578h1.602c0.646 0 1.253-1.535 1.775-3.578H70.62z"/>
      <path id="left_back_hoove" fill="#404041" d="M79.412 192.045h1.602c0.695 0 1.345-1.773 1.892-4.045h-5.384C78.069 190.27 78.717 192.045 79.412 192.045z"/>
      <path id="left_front_hoove" fill="#404041" d="M44.778 191.739h1.602c0.663 0 1.285-1.616 1.816-3.739h-5.233C43.494 190.122 44.115 191.739 44.778 191.739z"/>
      <path id="right_back_leg" fill="#F2F2F2" d="M76.545 183.549c-1.34 1.13-3.085 1.797-5.091 2.3 0.033 0.696-0.368 1.575-0.863 2.076 0.01 0.044 0.02 0.075 0.03 0.075h5.152C76.359 186.094 76.545 183.549 76.545 183.549z"/>
      <path id="right_front_leg" fill="#F2F2F2" d="M41.93 182.956c-2.802-0.375-5.242-2.178-7.438-4.694 0.25 1.893 0.746 5.359 1.397 8.134 0.043 0.184 0.087 0.603 0.132 0.603h5.235c0.274-1 0.523-2.386 0.742-3.6C41.974 183.259 41.952 183.106 41.93 182.956z"/>
      <path id="frontlegShadow" fill="#E6E6E6" d="M41.93 182.956c-0.061-0.409-0.121-0.827-0.174-1.183 -0.25-0.003-0.522-0.032-0.809-0.083 -2.532-0.345-4.68-1.816-6.527-3.99 0.021 0.162 0.047 0.361 0.073 0.562C36.688 180.779 39.127 182.582 41.93 182.956z"/>
      <path id="udders" fill="#F7ABBF" d="M76.36 182.004c-0.613-0.038-1.241-0.092-1.876-0.154 -0.156-0.015-0.317-0.033-0.474-0.05 -0.591-0.061-1.196-0.131-1.803-0.202 -4.083-0.482-8.541-1.12-13.262-0.82 -1.017 0.065-1.983 0.139-2.919 0.217 0.794 1.377 2.374 2.727 4.98 3.951 -0.193 1.639 2.081 4.7 2.54 0.894 0.45 0.114 0.91 0.212 1.384 0.287 -0.049 1.708 2.473 4.342 2.581 0.208 0.459 0.016 0.917-0.005 1.375-0.061 0.15 2.308 1.018 2.345 1.705 1.65 0.495-0.501 0.896-1.38 0.863-2.076 2.006-0.503 3.751-1.171 5.091-2.3C76.475 183.072 76.42 182.405 76.36 182.004z"/>
      <path id="spot3" fill="#404041" d="M82.959 169.669c-0.829 1.154 3.166 8.081-2.746 5.831 -3.647-1.388-12.898 3.726-12.898-1.944 0-1.959 2.306-3.095 3.694-3.905 3.233-1.887 1.167-3.119 2.157-6.073C74.659 159.131 86.212 165.138 82.959 169.669z"/>
      <path id="spot2" fill="#404041" d="M54.436 158.367c7.362 10.165-3.062 17.492-7.802 12.026 -2.653-3.059 5.763-6.444 1.946-9.587C44.706 157.616 50.653 153.143 54.436 158.367z"/>
      <path id="spot1" fill="#404041" d="M88.735 146.014c3.31 10.977-1.814 15.701-9.018 9.149 -5.974-5.433-14.765 4.135-18.558 0.829C52.856 148.757 83.909 130.013 88.735 146.014z"/>
      <path id="hornLeft" fill="#D0D2D3" d="M23.104 132.501c0.035-0.033 0.069-0.068 0.104-0.101 0.677-0.607 1.423-1.087 2.237-1.475 -0.135-0.103-0.299-0.19-0.529-0.234 -4.608-0.881-5.142-5.643-6.053-4.764 -1.088 1.049-1.849 5.891 1.748 8.915 0.109 0.091 0.227 0.15 0.345 0.211 0.453-0.651 0.93-1.278 1.448-1.839C22.631 132.962 22.863 132.723 23.104 132.501z"/>
      <path id="hornRight" fill="#D0D2D3" d="M53.267 132.168c-0.539-1.131-3.419 3.161-7.954 2.437 0.876 0.93 1.532 2.033 2.02 3.317 0.247 0.648 0.464 1.329 0.619 2.086 0.173-0.007 0.354-0.039 0.547-0.108 1.662-0.588 2.839-1.631 3.627-2.777C53.44 135.214 53.673 133.02 53.267 132.168z"/>
      <path id="hornShadow" fill="#E6E6E6" d="M48.822 140.863c-0.003-0.015-0.005-0.022-0.008-0.04 0.171-0.008 4.163-2.281 4.856-3.938l-1.544 0.239c-0.788 1.146-1.966 2.189-3.627 2.777 -0.193 0.068-0.375 0.1-0.547 0.108 0.086 0.422 0.175 0.84 0.235 1.298C48.372 141.146 48.588 140.999 48.822 140.863z"/>
      <path id="faceShadow" fill="#E6E6E6" d="M56.63 140.323c1.236 0.811 2.432 2.578 2.117 4.317 -0.402 2.216-3.275 3.593-4.584 3.355 -2.037-0.37-4.465-1.513-5.799-2.933 -0.056 1.08 0.127 11.598-9.157 19.198 -1.657 3.009-6.154 4.578-10.015 4.455 -0.002 0.003-0.004 0.007-0.006 0.01l0.518 0.939c4.091 0.771 8.559-1.41 10.451-4.97 9.191-7.793 9.01-17.58 9.065-18.688 1.32 1.456 3.724 2.629 5.741 3.008 1.297 0.244 4.141-1.168 4.539-3.441C59.899 143.3 58.079 140.595 56.63 140.323z"/>
      <path id="earspotLeft" fill="#404041" d="M34.505 132.621c-0.425-0.213-0.642-0.322-0.737-0.369 0.156 0.078 0.571 0.286 0.732 0.367 -2.134-1.071-4.745-2.649-7.37-2.33 -0.601 0.164-1.154 0.384-1.684 0.637 -0.815 0.388-1.561 0.868-2.237 1.475 -0.035 0.032-0.069 0.068-0.104 0.101 -0.241 0.222-0.473 0.462-0.7 0.713 -0.518 0.56-0.996 1.188-1.448 1.839 -0.23 0.33-0.464 0.657-0.671 1.004 -1.087-1.71-3.979-3.302-6.355-3.733 -1.463-0.265-4.175 1.098-4.577 3.314 -0.402 2.216 1.811 4.473 3.121 4.711 1.928 0.35 4.444 0.102 6.19-0.656 -0.221 0.748-0.373 1.483-0.421 2.175 0.011 0.011 0.02 0.02 0.03 0.031 6.028 6.436 3.556-4.162 7.421-4.027C27.95 137.944 40.375 135.563 34.505 132.621z"/>
      <path id="faceshape" fill="#F2F2F2" d="M56.63 140.323c-0.339-0.223-0.682-0.377-0.997-0.434 -2.175-0.395-5.092-0.027-6.811 0.974 -0.235 0.137-0.45 0.284-0.635 0.444 -0.06-0.459-0.148-0.877-0.235-1.298 -0.155-0.757-0.372-1.437-0.619-2.086 -0.002-0.004-0.003-0.008-0.005-0.012 -0.488-1.279-1.142-2.379-2.015-3.305 -1.196-1.27-2.753-2.273-4.773-3.099 -0.596-0.243-1.329 0.026-0.44-1.091 0.608-0.763-3.361 0.153-3.82 0.072 -0.499-0.088 1.614-1.79 1.112-1.865 -0.431-0.065-3.479 1.495-3.89 1.443 -0.422-0.054 0.962-1.491 0.583-1.529 -0.805-0.08-3.278 1.271-3.73 1.288 -1.191 0.045-2.257 0.2-3.226 0.464 2.626-0.319 5.236 1.259 7.37 2.33 -0.161-0.081-0.576-0.289-0.732-0.367 0.095 0.047 0.312 0.156 0.737 0.369 5.87 2.942-6.555 5.323-8.81 5.251 -3.865-0.134-1.393 10.463-7.421 4.027 -0.534 3.513-1.306 10.947 0.664 16.145 -0.486-4.945 2.935-3.952 6.435-2.44 1.97 0.851 3.966 1.865 5.304 2.079 1.377 0.22 3.191 0.137 4.859 0.236 3.108 0.185 5.705 1.005 4.008 5.61 -0.093 0.253-0.206 0.497-0.336 0.732 9.284-7.599 9.101-18.118 9.157-19.198 1.334 1.42 3.761 2.563 5.799 2.933 1.31 0.238 4.182-1.139 4.584-3.355C59.063 142.901 57.867 141.134 56.63 140.323z"/>
      <path id="muzzle" fill="#F7ABBF" d="M35.535 157.918c-1.667-0.099-3.481-0.016-4.859-0.236 -1.338-0.213-3.334-1.228-5.304-2.079 -3.501-1.512-6.922-2.505-6.435 2.44v0c0.272 6.224 3.999 9.747 8.354 10.539 0.551 0.1 1.709 0.132 1.709 0.132 4 0.076 8.475-1.316 10.109-4.283 0.13-0.235 0.341-0.651 0.434-0.904C41.24 158.923 38.643 158.103 35.535 157.918z"/>
      <path id="mouth" fill="#C34599" d="M24.479 164.049c0.217-0.171-0.917 0.029-0.576 0.464 0.341 0.434 1.556 1.286 2.651 1.199 0 0 0 0-1.114-0.572C24.828 164.825 24.339 164.159 24.479 164.049z"/>
      <path id="nostrilRight" fill="#333333" d="M32.137 160.864c-2.13 0.902-2.089 4.023 0.033 1.139C33.739 163.276 35.069 159.623 32.137 160.864z"/>
      <path id="nostrilLeft" fill="#333333" d="M27.328 160.147c1.841 1.402 0.543 4.5-0.431 1.055C22.627 160.702 23.457 157.198 27.328 160.147z"/>
      <path id="eyeWhites" fill="#FFFFFF" d="M38.696 147.706c-2.669-1.176-5.675-0.466-6.907 1.555 -0.382-2.007-2.675-3.444-5.325-3.245 -2.781 0.208-4.878 2.131-4.682 4.295 0.196 2.164 2.609 3.749 5.39 3.541 1.8-0.135 3.301-0.993 4.092-2.164 0.219 1.624 1.448 3.203 3.356 4.044 2.778 1.225 5.943 0.421 7.069-1.795C42.814 151.72 41.474 148.931 38.696 147.706z"/>
      <path id="irisLeft" fill="#333333" d="M28.299 150.012c-0.164 0.256-0.401 0.415-0.641 0.371 -0.362-0.066-0.579-0.541-0.485-1.062 0.021-0.118 0.061-0.226 0.107-0.325 -0.093-0.035-0.186-0.07-0.286-0.088 -1.042-0.189-2.069 0.667-2.295 1.913 -0.226 1.245 0.435 2.408 1.477 2.597 0.632 0.115 1.256-0.159 1.701-0.668 -0.085 0.035-0.177 0.055-0.274 0.037 -0.272-0.049-0.452-0.31-0.403-0.581 0.049-0.272 0.31-0.452 0.581-0.403 0.247 0.045 0.41 0.266 0.401 0.51 0.133-0.243 0.234-0.514 0.288-0.809C28.568 150.965 28.492 150.448 28.299 150.012z"/>
      <path id="irisRight" fill="#333333" d="M38.061 153.964c0.049-0.272 0.31-0.452 0.581-0.403 0.098 0.018 0.177 0.069 0.245 0.132 0.029-0.094 0.062-0.186 0.08-0.285 0.085-0.468 0.031-0.927-0.13-1.329 -0.155 0.45-0.465 0.755-0.772 0.699 -0.362-0.066-0.569-0.596-0.463-1.185 0.044-0.243 0.141-0.445 0.258-0.609 -0.178-0.095-0.367-0.173-0.575-0.211 -1.155-0.209-2.274 0.63-2.5 1.876 -0.226 1.245 0.527 2.425 1.682 2.634 0.751 0.136 1.483-0.176 1.968-0.75C38.18 154.47 38.013 154.225 38.061 153.964z"/>
      <path id="eyelineLeft" fill="#CCCCCC" d="M20.951 150.25c0.042 0.136 0.211 0.4 0.883 0.409 0 0-0.878-0.524 3.043-1.632 3.637-1.027 6.823 0.26 6.823 0.26l0.078-0.153C28.165 147.875 24.2 148.184 20.951 150.25z"/>
      <path id="eyelidLeft" fill="#E6E6E6" d="M26.012 145.67c-2.957 0.186-4.635 1.681-5.047 4.473 -0.005 0.031-0.014 0.057-0.018 0.088 0.002 0.006 0.003 0.011 0.005 0.018 3.249-2.066 7.214-2.374 10.826-1.116C30.969 146.578 28.831 145.435 26.012 145.67z"/>
      <path id="eyelineRight" fill="#CCCCCC" d="M31.312 149.656l0.465 0.23c0 0 3.597-0.544 6.173 0.855 2.547 1.383 3.827 3.382 3.827 3.382 0.438 0.246 0.719 0 0.719 0C39.635 150.461 35.907 148.972 31.312 149.656z"/>
      <path id="eyelidRight" fill="#E6E6E6" d="M39.256 147.475c-3.194-1.306-5.842-0.579-7.944 2.182 4.595-0.685 8.323 0.805 11.184 4.467C43.375 151.032 42.295 148.816 39.256 147.475z"/>
      <path id="eyebrowLeft" fill="#58595B" d="M22.205 145.627c1.614-2.981 2.478-3.28 6.147-2.047 -1.368-0.46-3.777-0.335-6.071 2.113L22.205 145.627z"/>
      <path id="eyebrowRight" fill="#58595B" d="M42.575 146.737c-1.481-3.156-3.893-3.323-5.088-2.713 4.387-2.237 4.514 0.1 5.186 2.693L42.575 146.737z"/>
      <path id="earlineLeft" fill="#A6A8AB" d="M48.302 142.071c2.363-1.144 5.019-1.266 7.421-0.291 -2.545-0.616-5.143-0.103-7.367 1.346L48.302 142.071z"/>
      <path id="earlineRight" fill="#58595B" d="M19.493 137.973c-1.62-2.268-4.181-3.445-6.847-3.136 2.549-0.59 5.288 0.178 7.338 1.954L19.493 137.973z"/>
      <path id="stringsAroundCow" fill="#A6A8AB" d="M61 135Q70 160 55 182 53 183 52 182 64 158 59 135 60 132 61 135z"/>
      <g id="balloon5">
        <use xlink:href="#defballoon" id="balloon5shape" transform="translate(57 5)rotate(-3)" fill="#C24498"/>
        <path id="balloon5sting" stroke="#A6A8AB" d="M60 46C64 53 65 98 60 133 67 56 60 46 60 46z"/>
        <animateTransform id="balloonPopMove" attributeType="XML" attributeName="transform" begin="click" type="translate" values="0,0;50,-20;60,-10;70,400" additive="sum" dur="2s" fill="freeze" repeatCount="1"/>
        <animateTransform id="balloonPopShrink" attributeType="XML" attributeName="transform" begin="click" type="scale" from="1" to="0" additive="sum" dur="2s" fill="freeze" repeatCount="1"/>
        <animateTransform id="balloonPopRotate" attributeType="XML" attributeName="transform" begin="click" type="rotate" values="0 60 133;10 60 133;0 60 133;-180 60 133;90 60 133" additive="sum" dur="2s" fill="freeze" repeatCount="indefinite" />
      </g>
      <g id="balloon4">
        <use xlink:href="#defballoon" transform="translate(26 20) rotate(-6)" fill="#C24498"/>
        <path id="balloon4sting" stroke="#A6A8AB" d="M60 133C60 98 36 83 32 62 C36 83 60 98 60 133z"/>
        <animateTransform id="moveInBalloon4" attributeType="XML" attributeName="transform" begin="balloon5.click" type="rotate" dur="1.5s" values="0 60 133;6 60 133;5 60 133;6 60 133" additive="sum" fill="freeze" /> 
      </g>
      <g id="balloon3">
        <use xlink:href="#defballoon" transform="translate(91 23) rotate(17)" fill="#F6AABE"/>
        <path id="balloon3string" stroke="#A6A8AB" d="M61 135C58 117 86 74 80 64 86 74 58 117 61 135z"/>
        <animateTransform id="moveInBalloon3" attributeType="XML" attributeName="transform" begin="balloon5.click" type="rotate" dur="1.5s" values="0 60 133;-10 60 133;-9 60 133;-10 60 133" additive="sum" fill="freeze" /> 
      </g>
      <g id="balloon2">
        <use xlink:href="#defballoon" transform="translate(73 48)rotate(9)" fill="#C24498"/>
        <path id="balloon2string" stroke="#A6A8AB" d="M67 89C68 98 60 110 61 135 60 110 68 98 67 89z"/>
      </g>
      <g id="balloon1">
        <use xlink:href="#defballoon" transform="translate(42 37)rotate(-5)" fill="#F6AABE"/>
        <path id="balloon1string" stroke="#A6A8AB" d="M60 134C62 115 55 90 47 78 55 90 62 115 60 134z"/>
      </g>
      <path id="bow" stroke="#929497" fill="none" d="M60 134Q56 127 54 131 52 136 60 134 65 141 67 137 69 132 60 134 61 144 68 144 61 144 60 134 58 139 52 138 58 139 60 134z"/>
      <animateTransform id="drop" attributeType="XML" attributeName="transform" begin="balloon5.click" type="translate" from="0,0" to="0,10" dur="1s" additive="sum" repeatCount="1" fill="freeze"/>
      <animateTransform id="bob" attributeType="XML" attributeName="transform" type="translate" begin="0s"  values="0,0;0,5;0,0" dur="3s" additive="sum" repeatCount="indefinite" fill="freeze"/>
    </g>
    <animateTransform id="wiggle" attributeType="XML" attributeName="transform" type="rotate" begin="0s"  values="0 60 133;-1 60 133;0 60 133;1 60 133;0 60 133" dur="5s" additive="sum" repeatCount="indefinite" fill="freeze"/>
  </g>
</svg>